# xmcd CD database file
#
# Track frame offsets:
#	150
#	18347
#	33117
#	49090
#	70445
#	87252
#	105300
#	121427
#	137347
#	157390
#	180465
#	198057
#	217657
#	237895
#	252757
#	271950
#	285352
#	304167
#
# Disc length: 4302 seconds
#
# Revision: 0
# Processed by: cddbd v1.5.2PL0 Copyright (c) Steve Scherf et al.
# Submitted via: CDex 1.51
#
DISCID=ea10cc12
DTITLE=Rêve Bohème - The Best of Rêve Bohème
DYEAR=2006
DGENRE=Jazz
TTITLE0=Just One of Those Things
TTITLE1=Mélodie Au Crépuscule
TTITLE2=Red Lights
TTITLE3=Porto Cabello
TTITLE4=Trying To
TTITLE5=Django's Dream
TTITLE6=Spring In Oslo
TTITLE7=Rain Waltz
TTITLE8=Vette
TTITLE9=Pêche A La Mouche
TTITLE10=Lime House Blues
TTITLE11=Django Jalousie
TTITLE12=Sofie Swing
TTITLE13=Stockholm
TTITLE14=Webster
TTITLE15=Hungaria
TTITLE16=Nocturne
TTITLE17=Solen Er Sa Rod
EXTD=YEAR: 2006
EXTT0=
EXTT1=
EXTT2=
EXTT3=
EXTT4=
EXTT5=
EXTT6=
EXTT7=
EXTT8=
EXTT9=
EXTT10=
EXTT11=
EXTT12=
EXTT13=
EXTT14=
EXTT15=
EXTT16=
EXTT17=
PLAYORDER=
